<svg xmlns="http://www.w3.org/2000/svg" xmlns:xlink="http://www.w3.org/1999/xlink" width="500" zoomAndPan="magnify" viewBox="0 0 375 374.999991" height="500" preserveAspectRatio="xMidYMid meet" version="1.0"><defs><g/></defs><g fill="#ffde59" fill-opacity="1"><g transform="translate(141.893125, 194.632209)"><g><path d="M 1.875 0 L 0.640625 -12.3125 L 2.5 -12.3125 L 3.25 -4.90625 L 4.765625 -10.3125 L 6.0625 -10.3125 L 7.578125 -4.90625 L 8.34375 -12.3125 L 10.203125 -12.3125 L 8.9375 0 C 8.9375 0 8.304688 0 7.046875 0 L 5.421875 -5.796875 L 3.765625 0 C 3.765625 0 3.132812 0 1.875 0 Z M 1.875 0 "/></g></g></g><g fill="#ffde59" fill-opacity="1"><g transform="translate(152.687856, 194.632209)"><g><path d="M 2.984375 -3.484375 C 2.984375 -2.953125 3.179688 -2.507812 3.578125 -2.15625 C 3.972656 -1.800781 4.550781 -1.625 5.3125 -1.625 L 5.515625 -1.625 C 6.273438 -1.625 6.847656 -1.796875 7.234375 -2.140625 C 7.617188 -2.492188 7.8125 -2.941406 7.8125 -3.484375 L 7.8125 -12.3125 L 9.65625 -12.3125 L 9.65625 -3.484375 C 9.65625 -2.992188 9.5625 -2.523438 9.375 -2.078125 C 9.195312 -1.640625 8.9375 -1.25 8.59375 -0.90625 C 8.257812 -0.5625 7.828125 -0.285156 7.296875 -0.078125 C 6.765625 0.117188 6.171875 0.21875 5.515625 0.21875 L 5.3125 0.21875 C 4.65625 0.21875 4.0625 0.117188 3.53125 -0.078125 C 3 -0.285156 2.5625 -0.554688 2.21875 -0.890625 C 1.875 -1.234375 1.609375 -1.628906 1.421875 -2.078125 C 1.234375 -2.523438 1.140625 -2.992188 1.140625 -3.484375 L 1.140625 -12.3125 L 2.984375 -12.3125 Z M 2.984375 -3.484375 "/></g></g></g><g fill="#ffffff" fill-opacity="1"><g transform="translate(163.490784, 194.632209)"><g><path d="M 5.515625 -6.96875 C 6.128906 -6.96875 6.609375 -7.03125 6.953125 -7.15625 C 7.296875 -7.289062 7.523438 -7.472656 7.640625 -7.703125 C 7.753906 -7.941406 7.8125 -8.265625 7.8125 -8.671875 L 7.8125 -9.3125 C 7.8125 -9.601562 7.757812 -9.820312 7.65625 -9.96875 C 7.550781 -10.125 7.332031 -10.242188 7 -10.328125 C 6.664062 -10.410156 6.171875 -10.453125 5.515625 -10.453125 L 2.984375 -10.453125 L 2.984375 -6.96875 Z M 9.65625 -9.3125 L 9.65625 -8.671875 C 9.65625 -7.546875 9.320312 -6.671875 8.65625 -6.046875 C 7.988281 -5.421875 6.941406 -5.109375 5.515625 -5.109375 L 2.984375 -5.109375 L 2.984375 0 L 1.140625 0 L 1.140625 -12.3125 L 5.515625 -12.3125 C 6.304688 -12.3125 6.972656 -12.242188 7.515625 -12.109375 C 8.054688 -11.984375 8.484375 -11.789062 8.796875 -11.53125 C 9.109375 -11.269531 9.328125 -10.960938 9.453125 -10.609375 C 9.585938 -10.253906 9.65625 -9.820312 9.65625 -9.3125 Z M 9.65625 -9.3125 "/></g></g></g><g fill="#ffffff" fill-opacity="1"><g transform="translate(174.285514, 194.632209)"><g><path d="M 5.5 -10.671875 L 5.34375 -10.671875 C 4.769531 -10.671875 4.316406 -10.546875 3.984375 -10.296875 C 3.648438 -10.046875 3.398438 -9.617188 3.234375 -9.015625 C 3.066406 -8.410156 2.984375 -7.59375 2.984375 -6.5625 L 2.984375 -6.015625 C 2.984375 -4.535156 3.175781 -3.429688 3.5625 -2.703125 C 3.945312 -1.984375 4.546875 -1.625 5.359375 -1.625 L 5.5 -1.625 C 6.300781 -1.632812 6.882812 -1.992188 7.25 -2.703125 C 7.625 -3.421875 7.8125 -4.523438 7.8125 -6.015625 L 7.8125 -6.578125 C 7.8125 -7.609375 7.734375 -8.421875 7.578125 -9.015625 C 7.421875 -9.617188 7.175781 -10.046875 6.84375 -10.296875 C 6.507812 -10.546875 6.0625 -10.671875 5.5 -10.671875 Z M 9.65625 -6.578125 L 9.65625 -6.015625 C 9.65625 -5.265625 9.609375 -4.578125 9.515625 -3.953125 C 9.421875 -3.335938 9.289062 -2.816406 9.125 -2.390625 C 8.96875 -1.972656 8.769531 -1.601562 8.53125 -1.28125 C 8.300781 -0.957031 8.066406 -0.703125 7.828125 -0.515625 C 7.597656 -0.335938 7.335938 -0.1875 7.046875 -0.0625 C 6.765625 0.0507812 6.5 0.125 6.25 0.15625 C 6.007812 0.195312 5.757812 0.21875 5.5 0.21875 L 5.359375 0.21875 C 5.085938 0.21875 4.828125 0.195312 4.578125 0.15625 C 4.335938 0.125 4.070312 0.0507812 3.78125 -0.0625 C 3.488281 -0.1875 3.222656 -0.34375 2.984375 -0.53125 C 2.742188 -0.71875 2.503906 -0.972656 2.265625 -1.296875 C 2.035156 -1.617188 1.835938 -1.988281 1.671875 -2.40625 C 1.515625 -2.832031 1.382812 -3.351562 1.28125 -3.96875 C 1.1875 -4.582031 1.140625 -5.265625 1.140625 -6.015625 L 1.140625 -6.5625 C 1.140625 -7.113281 1.160156 -7.617188 1.203125 -8.078125 C 1.253906 -8.535156 1.335938 -9 1.453125 -9.46875 C 1.566406 -9.9375 1.726562 -10.347656 1.9375 -10.703125 C 2.144531 -11.054688 2.398438 -11.375 2.703125 -11.65625 C 3.003906 -11.9375 3.375 -12.148438 3.8125 -12.296875 C 4.257812 -12.453125 4.769531 -12.53125 5.34375 -12.53125 L 5.5 -12.53125 C 6.0625 -12.53125 6.566406 -12.453125 7.015625 -12.296875 C 7.460938 -12.148438 7.835938 -11.9375 8.140625 -11.65625 C 8.441406 -11.375 8.691406 -11.054688 8.890625 -10.703125 C 9.097656 -10.347656 9.253906 -9.9375 9.359375 -9.46875 C 9.472656 -9 9.550781 -8.535156 9.59375 -8.078125 C 9.632812 -7.628906 9.65625 -7.128906 9.65625 -6.578125 Z M 9.65625 -6.578125 "/></g></g></g><g fill="#ffffff" fill-opacity="1"><g transform="translate(185.080245, 194.632209)"><g><path d="M 5.3125 -1.625 L 5.515625 -1.625 C 5.796875 -1.625 6.054688 -1.648438 6.296875 -1.703125 C 6.535156 -1.765625 6.734375 -1.84375 6.890625 -1.9375 C 7.046875 -2.03125 7.179688 -2.132812 7.296875 -2.25 C 7.421875 -2.363281 7.515625 -2.476562 7.578125 -2.59375 C 7.640625 -2.71875 7.6875 -2.828125 7.71875 -2.921875 C 7.757812 -3.015625 7.789062 -3.085938 7.8125 -3.140625 L 7.8125 -3.484375 C 7.8125 -4.203125 7.421875 -4.695312 6.640625 -4.96875 L 3.5 -6.078125 C 3.1875 -6.179688 2.910156 -6.335938 2.671875 -6.546875 C 2.441406 -6.765625 2.265625 -6.976562 2.140625 -7.1875 C 2.023438 -7.40625 1.929688 -7.644531 1.859375 -7.90625 C 1.796875 -8.175781 1.753906 -8.394531 1.734375 -8.5625 C 1.722656 -8.738281 1.71875 -8.910156 1.71875 -9.078125 L 1.71875 -9.3125 C 1.71875 -9.6875 1.800781 -10.0625 1.96875 -10.4375 C 2.132812 -10.8125 2.363281 -11.15625 2.65625 -11.46875 C 2.957031 -11.78125 3.347656 -12.035156 3.828125 -12.234375 C 4.304688 -12.429688 4.828125 -12.53125 5.390625 -12.53125 L 5.46875 -12.53125 C 6.445312 -12.53125 7.269531 -12.363281 7.9375 -12.03125 C 8.601562 -11.707031 9.082031 -11.234375 9.375 -10.609375 L 7.703125 -9.8125 C 7.429688 -10.382812 6.6875 -10.671875 5.46875 -10.671875 L 5.390625 -10.671875 C 5.066406 -10.671875 4.78125 -10.617188 4.53125 -10.515625 C 4.28125 -10.421875 4.085938 -10.296875 3.953125 -10.140625 C 3.816406 -9.992188 3.71875 -9.847656 3.65625 -9.703125 C 3.59375 -9.566406 3.5625 -9.4375 3.5625 -9.3125 L 3.5625 -9.078125 C 3.5625 -8.796875 3.625 -8.523438 3.75 -8.265625 C 3.875 -8.003906 4 -7.851562 4.125 -7.8125 L 7.265625 -6.71875 C 7.566406 -6.613281 7.847656 -6.476562 8.109375 -6.3125 C 8.367188 -6.144531 8.617188 -5.9375 8.859375 -5.6875 C 9.109375 -5.4375 9.300781 -5.117188 9.4375 -4.734375 C 9.582031 -4.359375 9.65625 -3.941406 9.65625 -3.484375 L 9.65625 -3.234375 C 9.65625 -2.972656 9.613281 -2.703125 9.53125 -2.421875 C 9.457031 -2.140625 9.316406 -1.835938 9.109375 -1.515625 C 8.910156 -1.191406 8.660156 -0.90625 8.359375 -0.65625 C 8.066406 -0.40625 7.671875 -0.195312 7.171875 -0.03125 C 6.671875 0.132812 6.117188 0.21875 5.515625 0.21875 L 5.3125 0.21875 C 4.15625 0.21875 3.164062 -0.125 2.34375 -0.8125 C 1.53125 -1.5 1.125 -2.304688 1.125 -3.234375 L 2.96875 -3.234375 C 2.96875 -2.859375 3.1875 -2.492188 3.625 -2.140625 C 4.070312 -1.796875 4.632812 -1.625 5.3125 -1.625 Z M 5.3125 -1.625 "/></g></g></g><g fill="#ffffff" fill-opacity="1"><g transform="translate(143.24355, 203.044059)"><g><path d="M 3.015625 -5.953125 L 1.703125 -5.953125 L 1.703125 -1.046875 L 3.015625 -1.046875 C 3.097656 -1.046875 3.179688 -1.050781 3.265625 -1.0625 C 3.347656 -1.070312 3.4375 -1.09375 3.53125 -1.125 C 3.632812 -1.164062 3.726562 -1.21875 3.8125 -1.28125 C 3.894531 -1.351562 3.972656 -1.445312 4.046875 -1.5625 C 4.128906 -1.675781 4.195312 -1.804688 4.25 -1.953125 C 4.3125 -2.109375 4.359375 -2.300781 4.390625 -2.53125 C 4.421875 -2.757812 4.4375 -3.015625 4.4375 -3.296875 L 4.4375 -3.78125 C 4.4375 -4.34375 4.382812 -4.78125 4.28125 -5.09375 C 4.1875 -5.414062 4.035156 -5.640625 3.828125 -5.765625 C 3.628906 -5.890625 3.359375 -5.953125 3.015625 -5.953125 Z M 5.484375 -3.78125 L 5.484375 -3.296875 C 5.484375 -2.910156 5.453125 -2.554688 5.390625 -2.234375 C 5.335938 -1.910156 5.265625 -1.632812 5.171875 -1.40625 C 5.078125 -1.1875 4.960938 -0.988281 4.828125 -0.8125 C 4.691406 -0.644531 4.550781 -0.507812 4.40625 -0.40625 C 4.257812 -0.3125 4.101562 -0.226562 3.9375 -0.15625 C 3.769531 -0.09375 3.609375 -0.0507812 3.453125 -0.03125 C 3.304688 -0.0078125 3.160156 0 3.015625 0 L 0.65625 0 L 0.65625 -7 L 3.015625 -7 C 3.398438 -7 3.738281 -6.941406 4.03125 -6.828125 C 4.320312 -6.722656 4.554688 -6.578125 4.734375 -6.390625 C 4.921875 -6.203125 5.070312 -5.96875 5.1875 -5.6875 C 5.300781 -5.414062 5.378906 -5.125 5.421875 -4.8125 C 5.460938 -4.507812 5.484375 -4.164062 5.484375 -3.78125 Z M 5.484375 -3.78125 "/></g></g></g><g fill="#ffffff" fill-opacity="1"><g transform="translate(149.375797, 203.044059)"><g><path d="M 1.703125 -2.265625 L 1.703125 -1.890625 C 1.703125 -1.785156 1.722656 -1.679688 1.765625 -1.578125 C 1.816406 -1.472656 1.890625 -1.367188 1.984375 -1.265625 C 2.085938 -1.160156 2.226562 -1.078125 2.40625 -1.015625 C 2.582031 -0.953125 2.785156 -0.921875 3.015625 -0.921875 L 3.140625 -0.921875 C 3.515625 -0.921875 3.800781 -0.972656 4 -1.078125 C 4.207031 -1.179688 4.335938 -1.304688 4.390625 -1.453125 L 5.375 -1.0625 C 5.226562 -0.695312 4.960938 -0.40625 4.578125 -0.1875 C 4.191406 0.0195312 3.710938 0.125 3.140625 0.125 L 3.015625 0.125 C 2.660156 0.125 2.328125 0.0664062 2.015625 -0.046875 C 1.710938 -0.160156 1.460938 -0.3125 1.265625 -0.5 C 1.078125 -0.695312 0.925781 -0.914062 0.8125 -1.15625 C 0.707031 -1.394531 0.65625 -1.640625 0.65625 -1.890625 L 0.65625 -3.25 C 0.65625 -3.832031 0.863281 -4.304688 1.28125 -4.671875 C 1.695312 -5.046875 2.273438 -5.234375 3.015625 -5.234375 L 3.140625 -5.234375 C 3.867188 -5.234375 4.441406 -5.046875 4.859375 -4.671875 C 5.273438 -4.304688 5.484375 -3.832031 5.484375 -3.25 L 5.484375 -2.265625 Z M 1.703125 -3.3125 L 4.4375 -3.3125 C 4.425781 -3.476562 4.378906 -3.617188 4.296875 -3.734375 C 4.222656 -3.859375 4.117188 -3.953125 3.984375 -4.015625 C 3.859375 -4.078125 3.722656 -4.117188 3.578125 -4.140625 C 3.441406 -4.171875 3.296875 -4.1875 3.140625 -4.1875 L 3.015625 -4.1875 C 2.859375 -4.1875 2.707031 -4.171875 2.5625 -4.140625 C 2.425781 -4.117188 2.289062 -4.078125 2.15625 -4.015625 C 2.03125 -3.953125 1.925781 -3.859375 1.84375 -3.734375 C 1.757812 -3.617188 1.710938 -3.476562 1.703125 -3.3125 Z M 1.703125 -3.3125 "/></g></g></g><g fill="#ffffff" fill-opacity="1"><g transform="translate(155.508045, 203.044059)"><g><path d="M 2.734375 0.125 L 0.390625 -5.125 L 1.546875 -5.125 L 3.078125 -1.6875 L 4.625 -5.125 L 5.765625 -5.125 L 3.421875 0.125 Z M 2.734375 0.125 "/></g></g></g><g fill="#ffffff" fill-opacity="1"><g transform="translate(161.640293, 203.044059)"><g><path d="M 1.703125 -2.265625 L 1.703125 -1.890625 C 1.703125 -1.785156 1.722656 -1.679688 1.765625 -1.578125 C 1.816406 -1.472656 1.890625 -1.367188 1.984375 -1.265625 C 2.085938 -1.160156 2.226562 -1.078125 2.40625 -1.015625 C 2.582031 -0.953125 2.785156 -0.921875 3.015625 -0.921875 L 3.140625 -0.921875 C 3.515625 -0.921875 3.800781 -0.972656 4 -1.078125 C 4.207031 -1.179688 4.335938 -1.304688 4.390625 -1.453125 L 5.375 -1.0625 C 5.226562 -0.695312 4.960938 -0.40625 4.578125 -0.1875 C 4.191406 0.0195312 3.710938 0.125 3.140625 0.125 L 3.015625 0.125 C 2.660156 0.125 2.328125 0.0664062 2.015625 -0.046875 C 1.710938 -0.160156 1.460938 -0.3125 1.265625 -0.5 C 1.078125 -0.695312 0.925781 -0.914062 0.8125 -1.15625 C 0.707031 -1.394531 0.65625 -1.640625 0.65625 -1.890625 L 0.65625 -3.25 C 0.65625 -3.832031 0.863281 -4.304688 1.28125 -4.671875 C 1.695312 -5.046875 2.273438 -5.234375 3.015625 -5.234375 L 3.140625 -5.234375 C 3.867188 -5.234375 4.441406 -5.046875 4.859375 -4.671875 C 5.273438 -4.304688 5.484375 -3.832031 5.484375 -3.25 L 5.484375 -2.265625 Z M 1.703125 -3.3125 L 4.4375 -3.3125 C 4.425781 -3.476562 4.378906 -3.617188 4.296875 -3.734375 C 4.222656 -3.859375 4.117188 -3.953125 3.984375 -4.015625 C 3.859375 -4.078125 3.722656 -4.117188 3.578125 -4.140625 C 3.441406 -4.171875 3.296875 -4.1875 3.140625 -4.1875 L 3.015625 -4.1875 C 2.859375 -4.1875 2.707031 -4.171875 2.5625 -4.140625 C 2.425781 -4.117188 2.289062 -4.078125 2.15625 -4.015625 C 2.03125 -3.953125 1.925781 -3.859375 1.84375 -3.734375 C 1.757812 -3.617188 1.710938 -3.476562 1.703125 -3.3125 Z M 1.703125 -3.3125 "/></g></g></g><g fill="#ffffff" fill-opacity="1"><g transform="translate(167.77254, 203.044059)"><g><path d="M 1.171875 -7 L 3.609375 -7 L 3.609375 -1.046875 L 4.96875 -1.046875 L 4.96875 0 L 1.171875 0 L 1.171875 -1.046875 L 2.546875 -1.046875 L 2.546875 -5.953125 L 1.171875 -5.953125 Z M 1.171875 -7 "/></g></g></g><g fill="#ffffff" fill-opacity="1"><g transform="translate(173.904788, 203.044059)"><g><path d="M 3.203125 -4.1875 L 2.9375 -4.1875 C 2.113281 -4.1875 1.703125 -3.71875 1.703125 -2.78125 L 1.703125 -2.421875 C 1.703125 -1.421875 2.113281 -0.921875 2.9375 -0.921875 L 3.171875 -0.921875 C 3.578125 -0.921875 3.890625 -1.035156 4.109375 -1.265625 C 4.328125 -1.503906 4.4375 -1.882812 4.4375 -2.40625 L 4.4375 -2.796875 C 4.4375 -3.722656 4.023438 -4.1875 3.203125 -4.1875 Z M 5.484375 -2.796875 L 5.484375 -2.40625 C 5.484375 -2.050781 5.4375 -1.71875 5.34375 -1.40625 C 5.25 -1.101562 5.109375 -0.835938 4.921875 -0.609375 C 4.742188 -0.378906 4.503906 -0.195312 4.203125 -0.0625 C 3.910156 0.0625 3.566406 0.125 3.171875 0.125 L 2.9375 0.125 C 2.5625 0.125 2.222656 0.0625 1.921875 -0.0625 C 1.628906 -0.195312 1.390625 -0.378906 1.203125 -0.609375 C 1.015625 -0.847656 0.875 -1.117188 0.78125 -1.421875 C 0.695312 -1.734375 0.65625 -2.066406 0.65625 -2.421875 L 0.65625 -2.78125 C 0.65625 -3.519531 0.847656 -4.113281 1.234375 -4.5625 C 1.628906 -5.007812 2.195312 -5.234375 2.9375 -5.234375 L 3.203125 -5.234375 C 3.929688 -5.234375 4.492188 -5.007812 4.890625 -4.5625 C 5.285156 -4.113281 5.484375 -3.523438 5.484375 -2.796875 Z M 5.484375 -2.796875 "/></g></g></g><g fill="#ffffff" fill-opacity="1"><g transform="translate(180.037035, 203.044059)"><g><path d="M 1.703125 1.921875 L 0.65625 1.921875 L 0.65625 -5.125 L 1.703125 -5.125 L 1.703125 -4.921875 C 2.066406 -5.128906 2.503906 -5.234375 3.015625 -5.234375 L 3.140625 -5.234375 C 3.523438 -5.234375 3.867188 -5.171875 4.171875 -5.046875 C 4.472656 -4.929688 4.71875 -4.769531 4.90625 -4.5625 C 5.101562 -4.351562 5.25 -4.113281 5.34375 -3.84375 C 5.4375 -3.570312 5.484375 -3.273438 5.484375 -2.953125 L 5.484375 -2.265625 C 5.484375 -1.554688 5.269531 -0.976562 4.84375 -0.53125 C 4.425781 -0.09375 3.859375 0.125 3.140625 0.125 L 3.015625 0.125 C 2.523438 0.125 2.085938 0.00390625 1.703125 -0.234375 Z M 1.703125 -2.15625 C 1.703125 -1.789062 1.828125 -1.492188 2.078125 -1.265625 C 2.328125 -1.035156 2.640625 -0.921875 3.015625 -0.921875 L 3.140625 -0.921875 C 3.335938 -0.921875 3.515625 -0.945312 3.671875 -1 C 3.828125 -1.050781 3.953125 -1.117188 4.046875 -1.203125 C 4.140625 -1.296875 4.21875 -1.398438 4.28125 -1.515625 C 4.34375 -1.640625 4.382812 -1.757812 4.40625 -1.875 C 4.425781 -2 4.4375 -2.128906 4.4375 -2.265625 L 4.4375 -2.953125 C 4.4375 -3.117188 4.414062 -3.269531 4.375 -3.40625 C 4.34375 -3.550781 4.28125 -3.679688 4.1875 -3.796875 C 4.09375 -3.921875 3.957031 -4.015625 3.78125 -4.078125 C 3.601562 -4.148438 3.390625 -4.1875 3.140625 -4.1875 L 3.015625 -4.1875 C 2.546875 -4.1875 2.207031 -4.070312 2 -3.84375 C 1.800781 -3.625 1.703125 -3.328125 1.703125 -2.953125 Z M 1.703125 -2.15625 "/></g></g></g><g fill="#ffffff" fill-opacity="1"><g transform="translate(186.169283, 203.044059)"><g><path d="M 3.21875 -4.84375 C 3.363281 -4.957031 3.503906 -5.046875 3.640625 -5.109375 C 3.773438 -5.179688 3.878906 -5.21875 3.953125 -5.21875 C 4.023438 -5.226562 4.109375 -5.234375 4.203125 -5.234375 L 4.28125 -5.234375 C 4.726562 -5.234375 5.097656 -5.101562 5.390625 -4.84375 C 5.679688 -4.582031 5.828125 -4.234375 5.828125 -3.796875 L 5.828125 0 L 4.78125 0 L 4.78125 -3.796875 C 4.78125 -3.835938 4.773438 -3.875 4.765625 -3.90625 C 4.753906 -3.945312 4.734375 -3.988281 4.703125 -4.03125 C 4.671875 -4.082031 4.617188 -4.117188 4.546875 -4.140625 C 4.472656 -4.171875 4.382812 -4.1875 4.28125 -4.1875 L 4.203125 -4.1875 C 4.054688 -4.1875 3.929688 -4.132812 3.828125 -4.03125 C 3.734375 -3.925781 3.671875 -3.816406 3.640625 -3.703125 C 3.617188 -3.585938 3.609375 -3.484375 3.609375 -3.390625 L 3.609375 0 L 2.546875 0 L 2.546875 -3.796875 C 2.546875 -3.941406 2.519531 -4.039062 2.46875 -4.09375 C 2.414062 -4.15625 2.3125 -4.1875 2.15625 -4.1875 L 2.09375 -4.1875 C 1.851562 -4.1875 1.671875 -4.101562 1.546875 -3.9375 C 1.429688 -3.769531 1.375 -3.597656 1.375 -3.421875 L 1.375 0 L 0.328125 0 L 0.328125 -5.125 L 1.375 -5.125 L 1.375 -5.015625 C 1.632812 -5.148438 1.875 -5.222656 2.09375 -5.234375 L 2.15625 -5.234375 C 2.601562 -5.234375 2.957031 -5.101562 3.21875 -4.84375 Z M 3.21875 -4.84375 "/></g></g></g><g fill="#ffffff" fill-opacity="1"><g transform="translate(192.30153, 203.044059)"><g><path d="M 1.703125 -2.265625 L 1.703125 -1.890625 C 1.703125 -1.785156 1.722656 -1.679688 1.765625 -1.578125 C 1.816406 -1.472656 1.890625 -1.367188 1.984375 -1.265625 C 2.085938 -1.160156 2.226562 -1.078125 2.40625 -1.015625 C 2.582031 -0.953125 2.785156 -0.921875 3.015625 -0.921875 L 3.140625 -0.921875 C 3.515625 -0.921875 3.800781 -0.972656 4 -1.078125 C 4.207031 -1.179688 4.335938 -1.304688 4.390625 -1.453125 L 5.375 -1.0625 C 5.226562 -0.695312 4.960938 -0.40625 4.578125 -0.1875 C 4.191406 0.0195312 3.710938 0.125 3.140625 0.125 L 3.015625 0.125 C 2.660156 0.125 2.328125 0.0664062 2.015625 -0.046875 C 1.710938 -0.160156 1.460938 -0.3125 1.265625 -0.5 C 1.078125 -0.695312 0.925781 -0.914062 0.8125 -1.15625 C 0.707031 -1.394531 0.65625 -1.640625 0.65625 -1.890625 L 0.65625 -3.25 C 0.65625 -3.832031 0.863281 -4.304688 1.28125 -4.671875 C 1.695312 -5.046875 2.273438 -5.234375 3.015625 -5.234375 L 3.140625 -5.234375 C 3.867188 -5.234375 4.441406 -5.046875 4.859375 -4.671875 C 5.273438 -4.304688 5.484375 -3.832031 5.484375 -3.25 L 5.484375 -2.265625 Z M 1.703125 -3.3125 L 4.4375 -3.3125 C 4.425781 -3.476562 4.378906 -3.617188 4.296875 -3.734375 C 4.222656 -3.859375 4.117188 -3.953125 3.984375 -4.015625 C 3.859375 -4.078125 3.722656 -4.117188 3.578125 -4.140625 C 3.441406 -4.171875 3.296875 -4.1875 3.140625 -4.1875 L 3.015625 -4.1875 C 2.859375 -4.1875 2.707031 -4.171875 2.5625 -4.140625 C 2.425781 -4.117188 2.289062 -4.078125 2.15625 -4.015625 C 2.03125 -3.953125 1.925781 -3.859375 1.84375 -3.734375 C 1.757812 -3.617188 1.710938 -3.476562 1.703125 -3.3125 Z M 1.703125 -3.3125 "/></g></g></g><g fill="#ffffff" fill-opacity="1"><g transform="translate(198.433778, 203.044059)"><g><path d="M 4.4375 -3.34375 C 4.4375 -3.90625 4.003906 -4.1875 3.140625 -4.1875 L 3.015625 -4.1875 C 2.785156 -4.1875 2.5625 -4.097656 2.34375 -3.921875 C 2.132812 -3.753906 1.972656 -3.566406 1.859375 -3.359375 C 1.753906 -3.160156 1.703125 -2.992188 1.703125 -2.859375 L 1.703125 0 L 0.65625 0 L 0.65625 -5.125 L 1.703125 -5.125 L 1.703125 -4.75 C 2.109375 -5.070312 2.546875 -5.234375 3.015625 -5.234375 L 3.140625 -5.234375 C 3.878906 -5.234375 4.453125 -5.0625 4.859375 -4.71875 C 5.273438 -4.375 5.484375 -3.914062 5.484375 -3.34375 L 5.484375 0 L 4.4375 0 Z M 4.4375 -3.34375 "/></g></g></g><g fill="#ffffff" fill-opacity="1"><g transform="translate(204.566025, 203.044059)"><g><path d="M 3.609375 0.125 L 3.5 0.125 C 3.03125 0.125 2.617188 -0.0351562 2.265625 -0.359375 C 1.910156 -0.691406 1.734375 -1.09375 1.734375 -1.5625 L 1.90625 -4 L 0.65625 -4 L 0.65625 -5.046875 L 1.984375 -5.046875 L 2.140625 -7.125 L 3.1875 -7.125 L 3.03125 -5.046875 L 4.5 -5.046875 L 4.5 -4 L 2.96875 -4 L 2.78125 -1.625 L 2.78125 -1.5625 C 2.78125 -1.394531 2.847656 -1.242188 2.984375 -1.109375 C 3.128906 -0.984375 3.300781 -0.921875 3.5 -0.921875 L 3.609375 -0.921875 C 3.785156 -0.921875 3.925781 -0.96875 4.03125 -1.0625 C 4.132812 -1.164062 4.207031 -1.269531 4.25 -1.375 L 5.21875 -0.9375 C 5.09375 -0.664062 4.890625 -0.421875 4.609375 -0.203125 C 4.328125 0.015625 3.992188 0.125 3.609375 0.125 Z M 3.609375 0.125 "/></g></g></g><g fill="#ffffff" fill-opacity="1"><g transform="translate(210.698273, 203.044059)"><g/></g></g><g fill="#ffffff" fill-opacity="1"><g transform="translate(216.83052, 203.044059)"><g><path d="M 1.703125 -1.984375 C 1.703125 -1.679688 1.8125 -1.425781 2.03125 -1.21875 C 2.257812 -1.019531 2.585938 -0.921875 3.015625 -0.921875 L 3.140625 -0.921875 C 3.566406 -0.921875 3.890625 -1.019531 4.109375 -1.21875 C 4.328125 -1.414062 4.4375 -1.671875 4.4375 -1.984375 L 4.4375 -7 L 5.484375 -7 L 5.484375 -1.984375 C 5.484375 -1.703125 5.429688 -1.429688 5.328125 -1.171875 C 5.234375 -0.921875 5.085938 -0.695312 4.890625 -0.5 C 4.703125 -0.3125 4.453125 -0.160156 4.140625 -0.046875 C 3.835938 0.0664062 3.503906 0.125 3.140625 0.125 L 3.015625 0.125 C 2.648438 0.125 2.3125 0.0664062 2 -0.046875 C 1.695312 -0.160156 1.445312 -0.3125 1.25 -0.5 C 1.0625 -0.695312 0.914062 -0.921875 0.8125 -1.171875 C 0.707031 -1.429688 0.65625 -1.703125 0.65625 -1.984375 L 0.65625 -7 L 1.703125 -7 Z M 1.703125 -1.984375 "/></g></g></g><g fill="#ffffff" fill-opacity="1"><g transform="translate(222.962768, 203.044059)"><g><path d="M 3.609375 0.125 L 3.5 0.125 C 3.03125 0.125 2.617188 -0.0351562 2.265625 -0.359375 C 1.910156 -0.691406 1.734375 -1.09375 1.734375 -1.5625 L 1.90625 -4 L 0.65625 -4 L 0.65625 -5.046875 L 1.984375 -5.046875 L 2.140625 -7.125 L 3.1875 -7.125 L 3.03125 -5.046875 L 4.5 -5.046875 L 4.5 -4 L 2.96875 -4 L 2.78125 -1.625 L 2.78125 -1.5625 C 2.78125 -1.394531 2.847656 -1.242188 2.984375 -1.109375 C 3.128906 -0.984375 3.300781 -0.921875 3.5 -0.921875 L 3.609375 -0.921875 C 3.785156 -0.921875 3.925781 -0.96875 4.03125 -1.0625 C 4.132812 -1.164062 4.207031 -1.269531 4.25 -1.375 L 5.21875 -0.9375 C 5.09375 -0.664062 4.890625 -0.421875 4.609375 -0.203125 C 4.328125 0.015625 3.992188 0.125 3.609375 0.125 Z M 3.609375 0.125 "/></g></g></g><g fill="#ffffff" fill-opacity="1"><g transform="translate(229.095016, 203.044059)"><g><path d="M 1.53125 -5.125 L 3.609375 -5.125 L 3.609375 -1.046875 L 4.96875 -1.046875 L 4.96875 0 L 1.171875 0 L 1.171875 -1.046875 L 2.546875 -1.046875 L 2.546875 -4.0625 L 1.53125 -4.0625 Z M 2.546875 -5.921875 C 2.398438 -6.078125 2.328125 -6.265625 2.328125 -6.484375 C 2.328125 -6.703125 2.398438 -6.882812 2.546875 -7.03125 C 2.703125 -7.1875 2.890625 -7.265625 3.109375 -7.265625 C 3.328125 -7.265625 3.515625 -7.1875 3.671875 -7.03125 C 3.828125 -6.882812 3.90625 -6.703125 3.90625 -6.484375 C 3.90625 -6.265625 3.828125 -6.078125 3.671875 -5.921875 C 3.515625 -5.773438 3.328125 -5.703125 3.109375 -5.703125 C 2.890625 -5.703125 2.703125 -5.773438 2.546875 -5.921875 Z M 2.546875 -5.921875 "/></g></g></g><g fill="#ffffff" fill-opacity="1"><g transform="translate(235.227263, 203.044059)"><g><path d="M 1.171875 -7 L 3.609375 -7 L 3.609375 -1.046875 L 4.96875 -1.046875 L 4.96875 0 L 1.171875 0 L 1.171875 -1.046875 L 2.546875 -1.046875 L 2.546875 -5.953125 L 1.171875 -5.953125 Z M 1.171875 -7 "/></g></g></g><g fill="#ffffff" fill-opacity="1"><g transform="translate(241.359511, 203.044059)"><g><path d="M 1.53125 -5.125 L 3.609375 -5.125 L 3.609375 -1.046875 L 4.96875 -1.046875 L 4.96875 0 L 1.171875 0 L 1.171875 -1.046875 L 2.546875 -1.046875 L 2.546875 -4.0625 L 1.53125 -4.0625 Z M 2.546875 -5.921875 C 2.398438 -6.078125 2.328125 -6.265625 2.328125 -6.484375 C 2.328125 -6.703125 2.398438 -6.882812 2.546875 -7.03125 C 2.703125 -7.1875 2.890625 -7.265625 3.109375 -7.265625 C 3.328125 -7.265625 3.515625 -7.1875 3.671875 -7.03125 C 3.828125 -6.882812 3.90625 -6.703125 3.90625 -6.484375 C 3.90625 -6.265625 3.828125 -6.078125 3.671875 -5.921875 C 3.515625 -5.773438 3.328125 -5.703125 3.109375 -5.703125 C 2.890625 -5.703125 2.703125 -5.773438 2.546875 -5.921875 Z M 2.546875 -5.921875 "/></g></g></g><g fill="#ffffff" fill-opacity="1"><g transform="translate(247.491758, 203.044059)"><g><path d="M 3.609375 0.125 L 3.5 0.125 C 3.03125 0.125 2.617188 -0.0351562 2.265625 -0.359375 C 1.910156 -0.691406 1.734375 -1.09375 1.734375 -1.5625 L 1.90625 -4 L 0.65625 -4 L 0.65625 -5.046875 L 1.984375 -5.046875 L 2.140625 -7.125 L 3.1875 -7.125 L 3.03125 -5.046875 L 4.5 -5.046875 L 4.5 -4 L 2.96875 -4 L 2.78125 -1.625 L 2.78125 -1.5625 C 2.78125 -1.394531 2.847656 -1.242188 2.984375 -1.109375 C 3.128906 -0.984375 3.300781 -0.921875 3.5 -0.921875 L 3.609375 -0.921875 C 3.785156 -0.921875 3.925781 -0.96875 4.03125 -1.0625 C 4.132812 -1.164062 4.207031 -1.269531 4.25 -1.375 L 5.21875 -0.9375 C 5.09375 -0.664062 4.890625 -0.421875 4.609375 -0.203125 C 4.328125 0.015625 3.992188 0.125 3.609375 0.125 Z M 3.609375 0.125 "/></g></g></g><g fill="#ffffff" fill-opacity="1"><g transform="translate(253.624006, 203.044059)"><g><path d="M 5.890625 -5.125 L 3.890625 0.703125 C 3.753906 1.109375 3.539062 1.425781 3.25 1.65625 C 2.96875 1.882812 2.625 2 2.21875 2 L 2.078125 2 C 1.867188 2 1.625 1.9375 1.34375 1.8125 C 1.070312 1.6875 0.832031 1.523438 0.625 1.328125 L 0.53125 1.25 L 1.21875 0.453125 L 1.359375 0.578125 C 1.484375 0.679688 1.613281 0.765625 1.75 0.828125 C 1.882812 0.898438 1.992188 0.9375 2.078125 0.9375 L 2.21875 0.9375 C 2.539062 0.9375 2.765625 0.753906 2.890625 0.390625 L 3.203125 -0.53125 L 0.421875 -5.125 L 1.640625 -5.125 L 3.640625 -1.8125 L 4.78125 -5.125 Z M 5.890625 -5.125 "/></g></g></g></svg>